<svg xmlns="http://www.w3.org/2000/svg" viewBox="0 0 800 800">
  <defs>
    <linearGradient id="bg" x1="0%" y1="0%" x2="100%" y2="100%">
      <stop offset="0%" stop-color="#7b4f1d"/>
      <stop offset="60%" stop-color="#d59f3a"/>
      <stop offset="100%" stop-color="#f6e39d"/>
    </linearGradient>
  </defs>
  <rect width="800" height="800" fill="url(#bg)"/>
  <ellipse cx="410" cy="630" rx="210" ry="50" fill="#663f19" opacity=".18"/>
  <path d="M220 520c0-150 98-255 260-255 86 0 158 22 210 58v197H220z" fill="#ffd75a"/>
  <path d="M220 520c0-150 98-255 260-255 86 0 158 22 210 58v45c-63-38-132-58-210-58-162 0-260 105-260 210z" fill="#ffef9f"/>
  <circle cx="390" cy="380" r="24" fill="#efbd28"/>
  <circle cx="514" cy="434" r="30" fill="#efbd28"/>
  <circle cx="322" cy="455" r="18" fill="#efbd28"/>
  <circle cx="460" cy="330" r="14" fill="#efbd28"/>
  <text x="400" y="720" text-anchor="middle" font-family="Georgia, serif" font-size="48" fill="#5b390b">Queso Curado</text>
</svg>
